<svg xmlns="http://www.w3.org/2000/svg" width="256" height="256" viewBox="0 0 100 100"><rect width="100" height="100" rx="20" fill="#7d6ee7"></rect><path d="M9.83 28.68L9.83 27.25L43.63 27.25L44.28 40.12L43.11 40.12Q40.38 33.55 37.39 31.12Q34.40 28.68 28.61 28.68L28.61 28.68L26.34 28.68L26.34 48.77L28.55 48.77Q31.60 48.77 33.68 46.46Q35.76 44.15 36.61 40.25L36.61 40.25L37.58 40.25L37.58 59.49L36.48 59.49Q35.31 54.61 33.33 52.53Q31.34 50.45 27.90 50.45L27.90 50.45L26.34 50.45L26.34 71.32L28.81 71.32Q34.79 71.32 38.98 67.75Q43.17 64.17 44.73 58.58L44.73 58.58L46.03 58.58L45.51 72.75L9.83 72.75L9.83 71.32L13.66 71.32L13.66 28.68L9.83 28.68ZM50.39 28.48L50.39 27.25L69.82 27.25Q78.86 27.25 83.38 29.69Q87.89 32.13 87.89 37.91L87.89 37.91Q87.89 46.81 77.17 48.57L77.17 48.57L77.17 48.70Q90.17 50.33 90.17 60.01L90.17 60.01Q90.17 67.09 84.84 69.92Q79.51 72.75 69.50 72.75L69.50 72.75L50.39 72.75L50.39 71.52L54.61 71.52L54.61 28.48L50.39 28.48ZM68.78 49.74L67.29 49.74L67.29 71.52L70.34 71.52Q73.92 71.52 75.35 69.05Q76.78 66.58 76.78 61.77L76.78 61.77L76.78 58.32Q76.78 54.03 75.02 51.88Q73.27 49.74 68.78 49.74L68.78 49.74ZM69.37 28.48L67.29 28.48L67.29 48.50L68.98 48.50Q72.36 48.50 73.69 46.46Q75.02 44.41 75.02 40.19L75.02 40.19L75.02 37.13Q75.02 32.32 73.85 30.40Q72.68 28.48 69.37 28.48L69.37 28.48Z" fill="#fff"></path></svg>